<svg width="211" height="43" viewBox="0 0 211 43" fill="none" xmlns="http://www.w3.org/2000/svg">
<path d="M63.584 30.168C62.352 30.168 61.248 29.968 60.272 29.568C59.296 29.168 58.512 28.576 57.92 27.792C57.344 27.008 57.04 26.064 57.008 24.96H61.376C61.44 25.584 61.656 26.064 62.024 26.4C62.392 26.72 62.872 26.88 63.464 26.88C64.072 26.88 64.552 26.744 64.904 26.472C65.256 26.184 65.432 25.792 65.432 25.296C65.432 24.88 65.288 24.536 65 24.264C64.728 23.992 64.384 23.768 63.968 23.592C63.568 23.416 62.992 23.216 62.24 22.992C61.152 22.656 60.264 22.32 59.576 21.984C58.888 21.648 58.296 21.152 57.8 20.496C57.304 19.84 57.056 18.984 57.056 17.928C57.056 16.36 57.624 15.136 58.76 14.256C59.896 13.36 61.376 12.912 63.2 12.912C65.056 12.912 66.552 13.36 67.688 14.256C68.824 15.136 69.432 16.368 69.512 17.952H65.072C65.04 17.408 64.84 16.984 64.472 16.68C64.104 16.36 63.632 16.2 63.056 16.2C62.56 16.2 62.16 16.336 61.856 16.608C61.552 16.864 61.4 17.24 61.4 17.736C61.4 18.28 61.656 18.704 62.168 19.008C62.68 19.312 63.48 19.64 64.568 19.992C65.656 20.36 66.536 20.712 67.208 21.048C67.896 21.384 68.488 21.872 68.984 22.512C69.48 23.152 69.728 23.976 69.728 24.984C69.728 25.944 69.48 26.816 68.984 27.6C68.504 28.384 67.8 29.008 66.872 29.472C65.944 29.936 64.848 30.168 63.584 30.168ZM78.3496 30.192C77.0376 30.192 75.8536 29.912 74.7976 29.352C73.7576 28.792 72.9336 27.992 72.3256 26.952C71.7336 25.912 71.4376 24.696 71.4376 23.304C71.4376 21.928 71.7416 20.72 72.3496 19.68C72.9576 18.624 73.7896 17.816 74.8456 17.256C75.9016 16.696 77.0856 16.416 78.3976 16.416C79.7096 16.416 80.8936 16.696 81.9496 17.256C83.0056 17.816 83.8376 18.624 84.4456 19.68C85.0536 20.72 85.3576 21.928 85.3576 23.304C85.3576 24.68 85.0456 25.896 84.4216 26.952C83.8136 27.992 82.9736 28.792 81.9016 29.352C80.8456 29.912 79.6616 30.192 78.3496 30.192ZM78.3496 26.64C79.1336 26.64 79.7976 26.352 80.3416 25.776C80.9016 25.2 81.1816 24.376 81.1816 23.304C81.1816 22.232 80.9096 21.408 80.3656 20.832C79.8376 20.256 79.1816 19.968 78.3976 19.968C77.5976 19.968 76.9336 20.256 76.4056 20.832C75.8776 21.392 75.6136 22.216 75.6136 23.304C75.6136 24.376 75.8696 25.2 76.3816 25.776C76.9096 26.352 77.5656 26.64 78.3496 26.64ZM86.7189 23.304C86.7189 21.912 86.9989 20.696 87.5589 19.656C88.1349 18.616 88.9269 17.816 89.9349 17.256C90.9589 16.696 92.1269 16.416 93.4389 16.416C95.1189 16.416 96.5189 16.856 97.6389 17.736C98.7749 18.616 99.5189 19.856 99.8709 21.456H95.5029C95.1349 20.432 94.4229 19.92 93.3669 19.92C92.6149 19.92 92.0149 20.216 91.5669 20.808C91.1189 21.384 90.8949 22.216 90.8949 23.304C90.8949 24.392 91.1189 25.232 91.5669 25.824C92.0149 26.4 92.6149 26.688 93.3669 26.688C94.4229 26.688 95.1349 26.176 95.5029 25.152H99.8709C99.5189 26.72 98.7749 27.952 97.6389 28.848C96.5029 29.744 95.1029 30.192 93.4389 30.192C92.1269 30.192 90.9589 29.912 89.9349 29.352C88.9269 28.792 88.1349 27.992 87.5589 26.952C86.9989 25.912 86.7189 24.696 86.7189 23.304ZM101.25 23.304C101.25 21.912 101.53 20.696 102.09 19.656C102.666 18.616 103.458 17.816 104.466 17.256C105.49 16.696 106.658 16.416 107.97 16.416C109.65 16.416 111.05 16.856 112.17 17.736C113.306 18.616 114.05 19.856 114.402 21.456H110.034C109.666 20.432 108.954 19.92 107.898 19.92C107.146 19.92 106.546 20.216 106.098 20.808C105.65 21.384 105.426 22.216 105.426 23.304C105.426 24.392 105.65 25.232 106.098 25.824C106.546 26.4 107.146 26.688 107.898 26.688C108.954 26.688 109.666 26.176 110.034 25.152H114.402C114.05 26.72 113.306 27.952 112.17 28.848C111.034 29.744 109.634 30.192 107.97 30.192C106.658 30.192 105.49 29.912 104.466 29.352C103.458 28.792 102.666 27.992 102.09 26.952C101.53 25.912 101.25 24.696 101.25 23.304ZM129.221 23.088C129.221 23.472 129.197 23.872 129.149 24.288H119.861C119.925 25.12 120.189 25.76 120.653 26.208C121.133 26.64 121.717 26.856 122.405 26.856C123.429 26.856 124.141 26.424 124.541 25.56H128.909C128.685 26.44 128.277 27.232 127.685 27.936C127.109 28.64 126.381 29.192 125.501 29.592C124.621 29.992 123.637 30.192 122.549 30.192C121.237 30.192 120.069 29.912 119.045 29.352C118.021 28.792 117.221 27.992 116.645 26.952C116.069 25.912 115.781 24.696 115.781 23.304C115.781 21.912 116.061 20.696 116.621 19.656C117.197 18.616 117.997 17.816 119.021 17.256C120.045 16.696 121.221 16.416 122.549 16.416C123.845 16.416 124.997 16.688 126.005 17.232C127.013 17.776 127.797 18.552 128.357 19.56C128.933 20.568 129.221 21.744 129.221 23.088ZM125.021 22.008C125.021 21.304 124.781 20.744 124.301 20.328C123.821 19.912 123.221 19.704 122.501 19.704C121.813 19.704 121.229 19.904 120.749 20.304C120.285 20.704 119.997 21.272 119.885 22.008H125.021ZM135.49 18.84C135.97 18.104 136.57 17.528 137.29 17.112C138.01 16.68 138.81 16.464 139.69 16.464V20.808H138.562C137.538 20.808 136.77 21.032 136.258 21.48C135.746 21.912 135.49 22.68 135.49 23.784V30H131.386V16.608H135.49V18.84ZM145.756 18.504C146.156 17.88 146.708 17.376 147.412 16.992C148.116 16.608 148.94 16.416 149.884 16.416C150.988 16.416 151.988 16.696 152.884 17.256C153.78 17.816 154.484 18.616 154.996 19.656C155.524 20.696 155.788 21.904 155.788 23.28C155.788 24.656 155.524 25.872 154.996 26.928C154.484 27.968 153.78 28.776 152.884 29.352C151.988 29.912 150.988 30.192 149.884 30.192C148.956 30.192 148.132 30 147.412 29.616C146.708 29.232 146.156 28.736 145.756 28.128V36.384H141.652V16.608H145.756V18.504ZM151.612 23.28C151.612 22.256 151.324 21.456 150.748 20.88C150.188 20.288 149.492 19.992 148.66 19.992C147.844 19.992 147.148 20.288 146.572 20.88C146.012 21.472 145.732 22.28 145.732 23.304C145.732 24.328 146.012 25.136 146.572 25.728C147.148 26.32 147.844 26.616 148.66 26.616C149.476 26.616 150.172 26.32 150.748 25.728C151.324 25.12 151.612 24.304 151.612 23.28ZM170.565 23.088C170.565 23.472 170.541 23.872 170.493 24.288H161.205C161.269 25.12 161.533 25.76 161.997 26.208C162.477 26.64 163.061 26.856 163.749 26.856C164.773 26.856 165.485 26.424 165.885 25.56H170.253C170.029 26.44 169.621 27.232 169.029 27.936C168.453 28.64 167.725 29.192 166.845 29.592C165.965 29.992 164.981 30.192 163.893 30.192C162.581 30.192 161.413 29.912 160.389 29.352C159.365 28.792 158.565 27.992 157.989 26.952C157.413 25.912 157.125 24.696 157.125 23.304C157.125 21.912 157.405 20.696 157.965 19.656C158.541 18.616 159.341 17.816 160.365 17.256C161.389 16.696 162.565 16.416 163.893 16.416C165.189 16.416 166.341 16.688 167.349 17.232C168.357 17.776 169.141 18.552 169.701 19.56C170.277 20.568 170.565 21.744 170.565 23.088ZM166.365 22.008C166.365 21.304 166.125 20.744 165.645 20.328C165.165 19.912 164.565 19.704 163.845 19.704C163.157 19.704 162.573 19.904 162.093 20.304C161.629 20.704 161.341 21.272 161.229 22.008H166.365ZM171.914 23.28C171.914 21.904 172.17 20.696 172.682 19.656C173.21 18.616 173.922 17.816 174.818 17.256C175.714 16.696 176.714 16.416 177.818 16.416C178.698 16.416 179.498 16.6 180.218 16.968C180.954 17.336 181.53 17.832 181.946 18.456V12.24H186.05V30H181.946V28.08C181.562 28.72 181.01 29.232 180.29 29.616C179.586 30 178.762 30.192 177.818 30.192C176.714 30.192 175.714 29.912 174.818 29.352C173.922 28.776 173.21 27.968 172.682 26.928C172.17 25.872 171.914 24.656 171.914 23.28ZM181.946 23.304C181.946 22.28 181.658 21.472 181.082 20.88C180.522 20.288 179.834 19.992 179.018 19.992C178.202 19.992 177.506 20.288 176.93 20.88C176.37 21.456 176.09 22.256 176.09 23.28C176.09 24.304 176.37 25.12 176.93 25.728C177.506 26.32 178.202 26.616 179.018 26.616C179.834 26.616 180.522 26.32 181.082 25.728C181.658 25.136 181.946 24.328 181.946 23.304ZM191.083 15.216C190.363 15.216 189.771 15.008 189.307 14.592C188.859 14.16 188.635 13.632 188.635 13.008C188.635 12.368 188.859 11.84 189.307 11.424C189.771 10.992 190.363 10.776 191.083 10.776C191.787 10.776 192.363 10.992 192.811 11.424C193.275 11.84 193.507 12.368 193.507 13.008C193.507 13.632 193.275 14.16 192.811 14.592C192.363 15.008 191.787 15.216 191.083 15.216ZM193.123 16.608V30H189.019V16.608H193.123ZM195.281 23.28C195.281 21.904 195.537 20.696 196.049 19.656C196.577 18.616 197.289 17.816 198.185 17.256C199.081 16.696 200.081 16.416 201.185 16.416C202.129 16.416 202.953 16.608 203.657 16.992C204.377 17.376 204.929 17.88 205.313 18.504V16.608H209.417V30H205.313V28.104C204.913 28.728 204.353 29.232 203.633 29.616C202.929 30 202.105 30.192 201.161 30.192C200.073 30.192 199.081 29.912 198.185 29.352C197.289 28.776 196.577 27.968 196.049 26.928C195.537 25.872 195.281 24.656 195.281 23.28ZM205.313 23.304C205.313 22.28 205.025 21.472 204.449 20.88C203.889 20.288 203.201 19.992 202.385 19.992C201.569 19.992 200.873 20.288 200.297 20.88C199.737 21.456 199.457 22.256 199.457 23.28C199.457 24.304 199.737 25.12 200.297 25.728C200.873 26.32 201.569 26.616 202.385 26.616C203.201 26.616 203.889 26.32 204.449 25.728C205.025 25.136 205.313 24.328 205.313 23.304Z" fill="#60C050"/>
<path d="M41.6119 21.4946C41.626 21.0156 41.7523 14.1685 37.7003 9.71128C37.5202 9.31286 36.6663 7.70708 33.9102 5.74453C32.6884 4.79679 31.3907 3.95118 30.0301 3.21627L30.0248 3.21358C29.8528 3.12153 26.492 1.34375 22.4131 1.34375C22.1034 1.34375 21.797 1.36189 21.494 1.38272V1.37734C18.3839 1.30948 15.2946 2.10969 13.4328 2.9502C11.7813 3.69598 9.9478 4.94634 9.81544 5.04309C7.52838 6.32234 3.19142 11.4561 2.8481 14.1766C1.46202 15.9483 0.303705 23.9067 2.85078 28.7542C4.63663 35.4911 11.3594 38.8626 11.8942 39.1213C12.2194 39.3289 15.8831 41.5938 20.384 41.5938C20.5728 41.5938 21.7143 41.6569 22.1215 41.6569C26.9865 41.6569 34.1958 38.2277 35.7048 35.5415C39.8509 32.5087 42.0003 24.6928 41.6119 21.4946ZM11.9312 31.6151C10.0036 28.4969 8.90505 24.4227 8.66989 23.4867C9.27996 22.5723 12.2893 18.1352 14.0039 16.8002C14.9748 16.979 19.0289 17.7234 22.8525 18.4154C23.3329 19.6604 25.4406 25.1537 26.0439 27.2741C25.3788 28.0629 22.7658 31.1051 20.1932 33.4876C17.462 33.5004 12.8167 31.9248 11.9312 31.6151ZM36.163 9.79594C36.155 10.0983 36.0831 11.1733 35.5684 12.4075C34.5465 11.8855 31.9779 10.7675 28.4573 10.5787C27.9245 9.79191 25.9196 7.04864 22.7531 5.14589C23.1864 4.29798 23.7898 3.26397 24.1425 2.94886C24.2567 2.91661 24.4341 2.88705 24.7042 2.88705C26.402 2.88705 29.3354 3.999 29.5907 4.09777C29.8615 4.24087 35.1344 7.08022 36.163 9.79594ZM7.91 22.8518C5.61017 22.4594 4.24291 21.7446 3.83441 21.5027C2.97911 18.4006 3.66778 15.048 3.77394 14.5676C4.61781 13.0586 7.02044 9.21208 8.60539 8.48175C10.2481 8.14648 12.2967 8.56305 13.1311 8.76663C13.0525 9.8517 12.9014 12.8832 13.3502 16.0645C11.5321 17.5279 8.65444 21.7399 7.91 22.8518V22.8518ZM21.2884 2.37172C21.8044 2.41002 22.5616 2.52289 23.0803 2.67675C22.5629 3.36475 22.0328 4.38466 21.7822 4.88856C20.7274 5.06123 16.721 5.82717 13.5779 7.86497C12.9444 7.697 11.0309 7.24886 9.21881 7.40339C9.66763 6.53466 10.3382 5.89234 10.41 5.8265C10.6593 5.64778 15.4578 2.29042 21.2884 2.36298V2.37172V2.37172ZM34.1185 27.9655C33.3324 27.9332 30.3036 27.7605 26.9825 26.9805C26.3463 24.762 24.2453 19.2915 23.7649 18.0472C25.2934 15.8686 26.845 13.7064 28.4197 11.561C32.2413 11.7706 34.9248 13.1647 35.4441 13.4556C37.6579 17.0159 38.1437 20.6521 38.2102 21.2595C37.0344 24.9185 34.7091 27.3823 34.1185 27.9655V27.9655ZM2.45572 19.1612C2.51216 20.0118 2.64855 20.9074 2.89513 21.7929C2.67345 22.3667 2.51966 22.9645 2.43691 23.5741C2.29659 22.1061 2.30289 20.6279 2.45572 19.1612V19.1612ZM8.93528 34.8555C9.94847 33.8793 11.1975 32.9293 11.6819 32.5705C12.7771 32.9561 17.2746 34.4766 20.1415 34.4766C20.6299 35.1317 22.227 37.1829 24.1848 38.7511C22.966 39.9436 21.2057 40.5067 20.8947 40.6001C15.4343 40.7465 10.1164 37.6774 8.93528 34.8555V34.8555ZM23.3557 40.592C23.9752 40.2312 24.6209 39.7562 25.155 39.1549C26.0264 39.0346 29.7661 38.3909 33.1456 35.9084C33.3687 35.9325 33.7362 35.9621 34.1467 35.9507C32.119 37.9374 27.1713 40.1566 23.3557 40.592ZM33.7187 34.9644C34.9328 31.8012 34.8811 29.416 34.8213 28.6541C35.4878 28.0011 37.7748 25.5642 39.044 21.8595C39.728 21.9737 40.1728 22.1477 40.3837 22.2451C40.457 22.5139 40.5793 23.1347 40.51 24.076C39.9927 27.4642 38.2069 32.5416 35.0786 34.7863C34.7642 34.9469 34.2105 34.9818 33.7187 34.9644" fill="#60C050"/>
</svg>
